<?xml version="1.0" encoding="UTF-8" standalone="no"?>
<!-- Generator: Adobe Illustrator 21.1.0, SVG Export Plug-In . SVG Version: 6.00 Build 0)  -->

<svg
   version="1.1"
   id="Layer_1"
   x="0px"
   y="0px"
   viewBox="0 0 183.2 183.4"
   xml:space="preserve"
   sodipodi:docname="WSDOT_Logo.svg"
   width="183.2"
   height="183.39999"
   inkscape:version="1.4.3 (0d15f75, 2025-12-25)"
   xmlns:inkscape="http://www.inkscape.org/namespaces/inkscape"
   xmlns:sodipodi="http://sodipodi.sourceforge.net/DTD/sodipodi-0.dtd"
   xmlns="http://www.w3.org/2000/svg"
   xmlns:svg="http://www.w3.org/2000/svg"><defs
   id="defs43" /><sodipodi:namedview
   id="namedview43"
   pagecolor="#505050"
   bordercolor="#eeeeee"
   borderopacity="1"
   inkscape:showpageshadow="0"
   inkscape:pageopacity="0"
   inkscape:pagecheckerboard="0"
   inkscape:deskcolor="#505050"
   inkscape:zoom="0.85336949"
   inkscape:cx="529.66506"
   inkscape:cy="73.824997"
   inkscape:window-width="2194"
   inkscape:window-height="1163"
   inkscape:window-x="-8"
   inkscape:window-y="-8"
   inkscape:window-maximized="1"
   inkscape:current-layer="Layer_1" />
<style
   type="text/css"
   id="style1">
	.st0{fill:#007B60;}
</style>
<g
   id="g43">
	
	
	
	
	
	
	
	
	
	
	
	
	
	
	
	
	
	
	
	
	
	
	
	
	
	
	
	
	
	
	
	
	
	
	
	
	
	
	
	
	
	<path
   class="st0"
   d="M 9.7,50.3 C 24.9,20.5 55.8,0 91.4,0 c 35.7,0 66.7,20.5 81.7,50.3 h -43.5 c -5.5,0 -9.9,1.6 -12.6,5.3 -0.9,-2.7 -2.4,-5.3 -5.9,-5.3 z"
   id="path40" />
	<path
   class="st0"
   d="m 46.4,171.7 c 5.7,3.1 11.7,5.8 18.1,7.7 l 0.2,-0.4 c 12.4,-21 33.1,-56.1 50.8,-86.1 4.9,-8.2 10.4,-11.3 19,-11.3 h 47.9 C 181.7,74.7 180,68.1 177.8,61.7 h -49.2 c -6,0 -12.1,3.1 -15.7,8.2 -0.4,-2 -0.9,-3.1 -1.5,-4.4 -1.3,-2.2 -2.6,-3.8 -6,-3.8 H 5.1 c -2.2,6.4 -3.8,13 -4.6,19.9 h 85.6 c 8.6,0 5.8,11.7 1.5,19.2 -13.7,23.5 -27.6,47.3 -41.2,70.9"
   id="path41" />
	<path
   class="st0"
   d="m 0,94.4 c 0.7,29.1 14.8,54.3 36.4,70.6 h 0.2 c 13.5,-23.6 24.5,-42.8 38.2,-66.4 1.3,-2.2 0.7,-4 -1.6,-4 z"
   id="path42" />
	<path
   class="st0"
   d="m 183.2,94.5 c -1.5,49.2 -42.1,88.9 -91.6,88.9 -5.1,0 -10.1,-0.6 -14.8,-1.3 v -0.2 c 12.6,-21.8 29.8,-50.8 46.3,-78.6 3.7,-6.4 6.4,-8.8 12.6,-8.8 z"
   id="path43" />
</g>
</svg>
